<?xml version="1.0" encoding="UTF-8"?>
<!DOCTYPE svg PUBLIC "-//W3C//DTD SVG 1.1//EN" "http://www.w3.org/Graphics/SVG/1.1/DTD/svg11.dtd">
<svg xmlns="http://www.w3.org/2000/svg" version="1.1" width="1000px" height="500px" style="shape-rendering:geometricPrecision; text-rendering:geometricPrecision; image-rendering:optimizeQuality; fill-rule:evenodd; clip-rule:evenodd" xmlns:xlink="http://www.w3.org/1999/xlink">
<g><path style="opacity:0.569" fill="#ffd0b5" d="M 328.5,142.5 C 320.833,142.5 313.167,142.5 305.5,142.5C 309.231,141.804 313.065,141.138 317,140.5C 320.935,141.138 324.769,141.804 328.5,142.5 Z"/></g>
<g><path style="opacity:1" fill="#fe7624" d="M 304.5,142.5 C 304.833,142.5 305.167,142.5 305.5,142.5C 313.167,142.5 320.833,142.5 328.5,142.5C 328.833,142.5 329.167,142.5 329.5,142.5C 333.239,144.102 337.239,145.102 341.5,145.5C 351.302,148.227 359.635,153.227 366.5,160.5C 367.167,161.833 368.167,162.833 369.5,163.5C 370.833,164.5 372.167,165.5 373.5,166.5C 373.5,167.167 373.833,167.5 374.5,167.5C 374.328,168.492 374.662,169.158 375.5,169.5C 375.5,170.167 375.833,170.5 376.5,170.5C 376.5,171.167 376.833,171.5 377.5,171.5C 378.167,171.5 378.5,171.833 378.5,172.5C 377.167,172.833 377.167,173.167 378.5,173.5C 378.5,174.167 378.5,174.833 378.5,175.5C 378.427,177.027 379.094,178.027 380.5,178.5C 380.833,178.5 381.167,178.5 381.5,178.5C 383.44,182.987 384.773,187.654 385.5,192.5C 385.41,195.152 386.076,197.485 387.5,199.5C 387.5,199.833 387.5,200.167 387.5,200.5C 387.5,208.5 387.5,216.5 387.5,224.5C 386.343,227.273 385.676,230.273 385.5,233.5C 384.298,239.44 382.298,245.107 379.5,250.5C 368.702,267.575 353.369,278.242 333.5,282.5C 324.524,283.308 315.524,283.642 306.5,283.5C 303.762,284.035 301.928,283.035 301,280.5C 295.995,267.652 291.495,254.652 287.5,241.5C 287.409,239.302 288.075,238.969 289.5,240.5C 293.5,244.827 298.167,248.161 303.5,250.5C 309.311,253.281 315.311,253.947 321.5,252.5C 327.573,251.568 333.239,249.568 338.5,246.5C 341.5,245.5 343.5,243.5 344.5,240.5C 346.515,237.131 348.515,233.798 350.5,230.5C 352.163,228.562 352.829,226.228 352.5,223.5C 352.5,223.167 352.5,222.833 352.5,222.5C 353.165,219.183 353.499,215.683 353.5,212C 353.707,206.898 353.04,202.065 351.5,197.5C 348.014,187.344 341.347,180.011 331.5,175.5C 329.562,173.837 327.228,173.171 324.5,173.5C 324.167,173.5 323.833,173.5 323.5,173.5C 321.19,172.836 318.69,172.503 316,172.5C 312.195,172.304 308.695,172.97 305.5,174.5C 301.74,176.216 298.073,178.216 294.5,180.5C 292.973,180.427 291.973,181.094 291.5,182.5C 290.094,182.973 289.427,183.973 289.5,185.5C 285.705,191.083 283.038,197.083 281.5,203.5C 280.673,208.651 280.173,213.984 280,219.5C 279.722,218.584 279.222,217.918 278.5,217.5C 277.262,215.786 276.595,213.786 276.5,211.5C 276.598,209.447 275.931,207.78 274.5,206.5C 273.262,204.786 272.595,202.786 272.5,200.5C 272.598,198.447 271.931,196.78 270.5,195.5C 269.262,193.786 268.595,191.786 268.5,189.5C 268.598,187.447 267.931,185.78 266.5,184.5C 265.596,183.791 265.263,182.791 265.5,181.5C 265.267,178.458 264.267,175.792 262.5,173.5C 261.596,172.791 261.263,171.791 261.5,170.5C 261.267,167.458 260.267,164.792 258.5,162.5C 256.125,157.047 254.125,151.381 252.5,145.5C 256.97,144.514 261.637,144.181 266.5,144.5C 266.334,150.176 266.501,155.843 267,161.5C 268.518,160.837 269.685,159.837 270.5,158.5C 276.538,152.141 283.871,147.808 292.5,145.5C 296.8,145.281 300.8,144.281 304.5,142.5 Z"/></g>
<g><path style="opacity:0.02" fill="#ffddca" d="M 329.5,142.5 C 333.837,142.584 337.837,143.584 341.5,145.5C 337.239,145.102 333.239,144.102 329.5,142.5 Z"/></g>
<g><path style="opacity:0.647" fill="#ffcdae" d="M 304.5,142.5 C 300.8,144.281 296.8,145.281 292.5,145.5C 296.163,143.584 300.163,142.584 304.5,142.5 Z"/></g>
<g><path style="opacity:0.602" fill="#706e6e" d="M 399.5,144.5 C 386.323,144.171 373.323,144.505 360.5,145.5C 359.957,145.44 359.624,145.107 359.5,144.5C 372.994,143.175 386.327,143.175 399.5,144.5 Z"/></g>
<g><path style="opacity:0.998" fill="#fe7624" d="M 32.5,143.5 C 33.8333,157.167 33.8333,170.833 32.5,184.5C 27.7985,170.896 22.7985,157.396 17.5,144C 22.4889,143.501 27.4889,143.334 32.5,143.5 Z"/></g>
<g><path style="opacity:0.989" fill="#ed9786" d="M 32.5,143.5 C 43.9405,142.985 55.6072,142.818 67.5,143C 68.8228,143.816 69.4894,144.983 69.5,146.5C 68.7109,146.217 68.0442,145.717 67.5,145C 56.505,144.5 45.505,144.333 34.5,144.5C 34.2119,160.535 34.5453,176.535 35.5,192.5C 33.9028,190.152 32.9028,187.486 32.5,184.5C 33.8333,170.833 33.8333,157.167 32.5,143.5 Z"/></g>
<g><path style="opacity:1" fill="#fe7624" d="M 69.5,146.5 C 87.0789,172.654 104.412,198.987 121.5,225.5C 121.685,227.196 122.519,228.529 124,229.5C 124.5,201.169 124.667,172.835 124.5,144.5C 127.279,144.279 129.946,144.612 132.5,145.5C 147.62,186.023 162.453,226.69 177,267.5C 176.6,271.196 176.767,274.862 177.5,278.5C 177.61,280.374 176.944,281.874 175.5,283C 158.167,283.667 140.833,283.667 123.5,283C 105.106,255.7 87.1061,228.2 69.5,200.5C 69.0133,199.527 68.5133,198.527 68,197.5C 67.5,223.165 67.3334,248.831 67.5,274.5C 67.6567,275.873 67.49,277.207 67,278.5C 59.0106,258.034 51.5106,237.367 44.5,216.5C 44.5979,214.447 43.9313,212.78 42.5,211.5C 41.596,210.791 41.2627,209.791 41.5,208.5C 41.2671,205.458 40.2671,202.792 38.5,200.5C 37.596,199.791 37.2627,198.791 37.5,197.5C 37.5979,195.447 36.9313,193.78 35.5,192.5C 34.5453,176.535 34.2119,160.535 34.5,144.5C 45.505,144.333 56.505,144.5 67.5,145C 68.0442,145.717 68.7109,146.217 69.5,146.5 Z"/></g>
<g><path style="opacity:0.59" fill="#ffb88e" d="M 132.5,145.5 C 129.946,144.612 127.279,144.279 124.5,144.5C 124.667,172.835 124.5,201.169 124,229.5C 122.519,228.529 121.685,227.196 121.5,225.5C 122.117,225.611 122.617,225.944 123,226.5C 123.82,199.637 123.653,172.803 122.5,146C 123.275,143.232 125.108,142.066 128,142.5C 130.626,142.05 132.126,143.05 132.5,145.5 Z"/></g>
<g><path style="opacity:1" fill="#ffbd95" d="M 178.5,146.5 C 177.711,146.217 177.044,145.717 176.5,145C 165.172,144.5 153.838,144.333 142.5,144.5C 142.5,147.833 142.5,151.167 142.5,154.5C 140.704,151.638 139.371,148.471 138.5,145C 138.645,144.228 138.978,143.561 139.5,143C 151.975,142.914 164.308,142.914 176.5,143C 177.823,143.816 178.489,144.983 178.5,146.5 Z"/></g>
<g><path style="opacity:1" fill="#ff7c2d" d="M 178.5,146.5 C 196.576,172.311 213.909,198.645 230.5,225.5C 230.685,227.196 231.519,228.529 233,229.5C 233.5,201.169 233.667,172.835 233.5,144.5C 237.182,144.335 240.848,144.501 244.5,145C 245.066,145.995 245.733,146.828 246.5,147.5C 262.687,190.561 278.354,233.894 293.5,277.5C 293.179,279.048 292.179,279.715 290.5,279.5C 281.822,276.799 274.489,272.132 268.5,265.5C 268.44,264.957 268.107,264.624 267.5,264.5C 266.504,270.463 266.171,276.463 266.5,282.5C 255.341,283.659 244.008,283.826 232.5,283C 219.783,264.395 207.45,245.561 195.5,226.5C 195.573,224.973 194.906,223.973 193.5,223.5C 187.863,215.678 182.363,207.678 177,199.5C 176.998,214.185 177.164,228.852 177.5,243.5C 177.281,244.938 176.781,246.271 176,247.5C 173.921,243.347 172.421,239.014 171.5,234.5C 171.598,232.447 170.931,230.78 169.5,229.5C 164.459,216.715 159.792,203.715 155.5,190.5C 155.598,188.447 154.931,186.78 153.5,185.5C 149.262,175.457 145.595,165.123 142.5,154.5C 142.5,151.167 142.5,147.833 142.5,144.5C 153.838,144.333 165.172,144.5 176.5,145C 177.044,145.717 177.711,146.217 178.5,146.5 Z"/></g>
<g><path style="opacity:0.598" fill="#ffbb93" d="M 246.5,147.5 C 245.733,146.828 245.066,145.995 244.5,145C 240.848,144.501 237.182,144.335 233.5,144.5C 233.667,172.835 233.5,201.169 233,229.5C 231.519,228.529 230.685,227.196 230.5,225.5C 231.117,225.611 231.617,225.944 232,226.5C 232.197,198.88 232.531,171.214 233,143.5C 236.744,142.374 240.577,142.207 244.5,143C 246.037,144.11 246.703,145.61 246.5,147.5 Z"/></g>
<g><path style="opacity:0.186" fill="#ffdac6" d="M 270.5,158.5 C 269.685,159.837 268.518,160.837 267,161.5C 266.501,155.843 266.334,150.176 266.5,144.5C 261.637,144.181 256.97,144.514 252.5,145.5C 251.226,144.811 251.226,143.977 252.5,143C 257.167,142.333 261.833,142.333 266.5,143C 267.309,148.417 267.809,153.917 268,159.5C 268.671,158.748 269.504,158.414 270.5,158.5 Z"/></g>
<g><path style="opacity:1" fill="#080808" d="M 399.5,144.5 C 408.891,157.593 418.058,170.927 427,184.5C 428.328,181.688 429.828,179.022 431.5,176.5C 432.497,176.47 433.164,176.97 433.5,178C 438.168,190.178 442.501,202.345 446.5,214.5C 447.6,215.605 448.267,216.938 448.5,218.5C 456.023,239.715 463.69,260.881 471.5,282C 470.906,282.464 470.239,282.631 469.5,282.5C 463.771,282.212 458.104,282.546 452.5,283.5C 442.804,269.637 433.304,255.637 424,241.5C 415.833,255.167 407.667,268.833 399.5,282.5C 387.1,282.205 374.6,282.538 362,283.5C 360.77,282.725 360.437,281.725 361,280.5C 367.815,270.862 373.982,260.862 379.5,250.5C 387.97,237.842 396.304,225.008 404.5,212C 397.181,200.507 389.514,189.34 381.5,178.5C 381.672,177.508 381.338,176.842 380.5,176.5C 380.5,175.833 380.167,175.5 379.5,175.5C 379.672,174.508 379.338,173.842 378.5,173.5C 378.5,173.167 378.5,172.833 378.5,172.5C 378.5,171.833 378.167,171.5 377.5,171.5C 376.833,171.5 376.5,171.167 376.5,170.5C 375.833,170.5 375.5,170.167 375.5,169.5C 375.672,168.508 375.338,167.842 374.5,167.5C 373.833,167.5 373.5,167.167 373.5,166.5C 369.428,159.36 365.095,152.36 360.5,145.5C 373.323,144.505 386.323,144.171 399.5,144.5 Z"/></g>
<g><path style="opacity:0.998" fill="#e4e0e0" d="M 446.5,214.5 C 442.501,202.345 438.168,190.178 433.5,178C 433.164,176.97 432.497,176.47 431.5,176.5C 437.833,165.163 444.666,154.163 452,143.5C 464.796,142.528 477.629,142.195 490.5,142.5C 490.649,143.552 490.483,144.552 490,145.5C 474.978,168.219 460.478,191.219 446.5,214.5 Z"/></g>
<g><path style="opacity:0.563" fill="#ac85f3" d="M 16.5,158.5 C 15.5014,199.663 15.168,240.997 15.5,282.5C 14.3353,239.669 14.1686,196.669 15,153.5C 15.6077,155.154 16.1077,156.821 16.5,158.5 Z"/></g>
<g><path style="opacity:1" fill="#18216d" d="M 16.5,158.5 C 22.4016,173.992 28.0683,189.659 33.5,205.5C 33.5,231.167 33.5,256.833 33.5,282.5C 32.5,282.5 31.5,282.5 30.5,282.5C 25.5,282.5 20.5,282.5 15.5,282.5C 15.168,240.997 15.5014,199.663 16.5,158.5 Z"/></g>
<g><path style="opacity:0.004" fill="#ffe9dd" d="M 366.5,160.5 C 368.5,160.5 369.5,161.5 369.5,163.5C 368.167,162.833 367.167,161.833 366.5,160.5 Z"/></g>
<g><path style="opacity:0.165" fill="#ffe0cf" d="M 258.5,162.5 C 260.267,164.792 261.267,167.458 261.5,170.5C 259.733,168.208 258.733,165.542 258.5,162.5 Z"/></g>
<g><path style="opacity:0.094" fill="#ffdcc9" d="M 323.5,173.5 C 317.464,173.36 311.464,173.693 305.5,174.5C 308.695,172.97 312.195,172.304 316,172.5C 318.69,172.503 321.19,172.836 323.5,173.5 Z"/></g>
<g><path style="opacity:0.729" fill="#ffd1b7" d="M 324.5,173.5 C 327.228,173.171 329.562,173.837 331.5,175.5C 328.933,175.279 326.599,174.612 324.5,173.5 Z"/></g>
<g><path style="opacity:0.192" fill="#ffdbc6" d="M 378.5,175.5 C 378.833,175.5 379.167,175.5 379.5,175.5C 380.167,175.5 380.5,175.833 380.5,176.5C 380.5,177.167 380.5,177.833 380.5,178.5C 379.094,178.027 378.427,177.027 378.5,175.5 Z"/></g>
<g><path style="opacity:0.161" fill="#ffe0cf" d="M 262.5,173.5 C 264.267,175.792 265.267,178.458 265.5,181.5C 263.733,179.208 262.733,176.542 262.5,173.5 Z"/></g>
<g><path style="opacity:0.004" fill="#ffe5d7" d="M 294.5,180.5 C 294.027,181.906 293.027,182.573 291.5,182.5C 291.973,181.094 292.973,180.427 294.5,180.5 Z"/></g>
<g><path style="opacity:0.004" fill="#ffe0cf" d="M 291.5,182.5 C 291.573,184.027 290.906,185.027 289.5,185.5C 289.427,183.973 290.094,182.973 291.5,182.5 Z"/></g>
<g><path style="opacity:0.267" fill="#ffdcc9" d="M 266.5,184.5 C 267.931,185.78 268.598,187.447 268.5,189.5C 267.069,188.22 266.402,186.553 266.5,184.5 Z"/></g>
<g><path style="opacity:0.204" fill="#ffe1d1" d="M 153.5,185.5 C 154.931,186.78 155.598,188.447 155.5,190.5C 154.069,189.22 153.402,187.553 153.5,185.5 Z"/></g>
<g><path style="opacity:0.22" fill="#ffe2d2" d="M 35.5,192.5 C 36.9313,193.78 37.5979,195.447 37.5,197.5C 36.0687,196.22 35.4021,194.553 35.5,192.5 Z"/></g>
<g><path style="opacity:0.015" fill="#fffaf9" d="M 69.5,200.5 C 68.8333,225.167 68.1667,249.833 67.5,274.5C 67.3334,248.831 67.5,223.165 68,197.5C 68.5133,198.527 69.0133,199.527 69.5,200.5 Z"/></g>
<g><path style="opacity:0.263" fill="#ffdcc9" d="M 270.5,195.5 C 271.931,196.78 272.598,198.447 272.5,200.5C 271.069,199.22 270.402,197.553 270.5,195.5 Z"/></g>
<g><path style="opacity:0.463" fill="#ffc6a5" d="M 385.5,192.5 C 386.924,194.515 387.59,196.848 387.5,199.5C 386.076,197.485 385.41,195.152 385.5,192.5 Z"/></g>
<g><path style="opacity:0.2" fill="#ffdecc" d="M 38.5,200.5 C 40.2671,202.792 41.2671,205.458 41.5,208.5C 39.7329,206.208 38.7329,203.542 38.5,200.5 Z"/></g>
<g><path style="opacity:0.009" fill="#ffebe0" d="M 351.5,197.5 C 353.04,202.065 353.707,206.898 353.5,212C 353.499,215.683 353.165,219.183 352.5,222.5C 352.665,214.138 352.332,205.805 351.5,197.5 Z"/></g>
<g><path style="opacity:0.991" fill="#e98979" d="M 33.5,205.5 C 35.2927,207.426 36.2927,209.759 36.5,212.5C 35.7784,212.082 35.2784,211.416 35,210.5C 34.5,234.498 34.3334,258.498 34.5,282.5C 42.1667,282.5 49.8333,282.5 57.5,282.5C 48.5,283.833 39.5,283.833 30.5,282.5C 31.5,282.5 32.5,282.5 33.5,282.5C 33.5,256.833 33.5,231.167 33.5,205.5 Z"/></g>
<g><path style="opacity:0.259" fill="#ffdcca" d="M 274.5,206.5 C 275.931,207.78 276.598,209.447 276.5,211.5C 275.069,210.22 274.402,208.553 274.5,206.5 Z"/></g>
<g><path style="opacity:0.102" fill="#ffdbc7" d="M 281.5,203.5 C 281.568,211.514 281.901,219.514 282.5,227.5C 280.215,224.665 278.882,221.332 278.5,217.5C 279.222,217.918 279.722,218.584 280,219.5C 280.173,213.984 280.673,208.651 281.5,203.5 Z"/></g>
<g><path style="opacity:1" fill="#18216d" d="M 36.5,212.5 C 45.3946,235.625 53.728,258.958 61.5,282.5C 60.1667,282.5 58.8333,282.5 57.5,282.5C 49.8333,282.5 42.1667,282.5 34.5,282.5C 34.3334,258.498 34.5,234.498 35,210.5C 35.2784,211.416 35.7784,212.082 36.5,212.5 Z"/></g>
<g><path style="opacity:0.686" fill="#ffc9aa" d="M 387.5,200.5 C 388.293,204.339 388.96,208.339 389.5,212.5C 388.96,216.661 388.293,220.661 387.5,224.5C 387.5,216.5 387.5,208.5 387.5,200.5 Z"/></g>
<g><path style="opacity:0.286" fill="#ffdac5" d="M 42.5,211.5 C 43.9313,212.78 44.5979,214.447 44.5,216.5C 43.0687,215.22 42.4021,213.553 42.5,211.5 Z"/></g>
<g><path style="opacity:0.993" fill="#e3e0e0" d="M 448.5,218.5 C 449.794,219.29 450.961,220.29 452,221.5C 465.363,241.365 478.53,261.365 491.5,281.5C 491.291,282.086 490.957,282.586 490.5,283C 483.321,283.821 476.321,283.655 469.5,282.5C 470.239,282.631 470.906,282.464 471.5,282C 463.69,260.881 456.023,239.715 448.5,218.5 Z"/></g>
<g><path style="opacity:0.004" fill="#ffe6d9" d="M 193.5,223.5 C 194.906,223.973 195.573,224.973 195.5,226.5C 194.094,226.027 193.427,225.027 193.5,223.5 Z"/></g>
<g><path style="opacity:0.89" fill="#ffc39f" d="M 352.5,223.5 C 352.829,226.228 352.163,228.562 350.5,230.5C 350.721,227.933 351.388,225.599 352.5,223.5 Z"/></g>
<g><path style="opacity:0.184" fill="#ffd2b7" d="M 387.5,224.5 C 387.785,227.829 387.118,230.829 385.5,233.5C 385.676,230.273 386.343,227.273 387.5,224.5 Z"/></g>
<g><path style="opacity:0.18" fill="#ffe7db" d="M 282.5,227.5 C 283.525,227.897 283.692,228.563 283,229.5C 282.536,228.906 282.369,228.239 282.5,227.5 Z"/></g>
<g><path style="opacity:0.145" fill="#ffe7dc" d="M 284.5,232.5 C 283.475,232.103 283.308,231.437 284,230.5C 284.464,231.094 284.631,231.761 284.5,232.5 Z"/></g>
<g><path style="opacity:0.2" fill="#ffe1d1" d="M 169.5,229.5 C 170.931,230.78 171.598,232.447 171.5,234.5C 170.069,233.22 169.402,231.553 169.5,229.5 Z"/></g>
<g><path style="opacity:0.608" fill="#ffd6be" d="M 284.5,232.5 C 286.664,234.822 288.331,237.489 289.5,240.5C 288.075,238.969 287.409,239.302 287.5,241.5C 285.132,239.044 284.132,236.044 284.5,232.5 Z"/></g>
<g><path style="opacity:0.647" fill="#ffc19b" d="M 344.5,240.5 C 343.5,243.5 341.5,245.5 338.5,246.5C 340.167,244.167 342.167,242.167 344.5,240.5 Z"/></g>
<g><path style="opacity:0.549" fill="#ffcaaa" d="M 303.5,250.5 C 309.42,251.817 315.42,252.483 321.5,252.5C 315.311,253.947 309.311,253.281 303.5,250.5 Z"/></g>
<g><path style="opacity:0.193" fill="#ffdecb" d="M 268.5,265.5 C 267.833,271.167 267.167,276.833 266.5,282.5C 266.171,276.463 266.504,270.463 267.5,264.5C 268.107,264.624 268.44,264.957 268.5,265.5 Z"/></g>
<g><path style="opacity:0.659" fill="#ffd8c2" d="M 293.5,277.5 C 295.368,278.786 295.534,280.119 294,281.5C 292.698,280.915 291.531,280.249 290.5,279.5C 292.179,279.715 293.179,279.048 293.5,277.5 Z"/></g>
<g><path style="opacity:0.363" fill="#ffdecc" d="M 333.5,282.5 C 328.42,284.015 323.086,284.682 317.5,284.5C 313.651,284.499 309.984,284.165 306.5,283.5C 315.524,283.642 324.524,283.308 333.5,282.5 Z"/></g>
</svg>
