<?xml version="1.0" encoding="UTF-8"?>
<!DOCTYPE svg PUBLIC "-//W3C//DTD SVG 1.1//EN" "http://www.w3.org/Graphics/SVG/1.1/DTD/svg11.dtd">
<svg xmlns="http://www.w3.org/2000/svg" version="1.1" width="512px" height="512px" style="shape-rendering:geometricPrecision; text-rendering:geometricPrecision; image-rendering:optimizeQuality; fill-rule:evenodd; clip-rule:evenodd" xmlns:xlink="http://www.w3.org/1999/xlink">
<g><path style="opacity:0.96" fill="#68003b" d="M 224.5,40.5 C 223.292,39.7659 221.959,39.4326 220.5,39.5C 218.8,33.4702 214.8,30.4702 208.5,30.5C 208.793,33.7543 208.126,36.7543 206.5,39.5C 205.5,39.5 204.5,39.5 203.5,39.5C 197.833,39.5 192.167,39.5 186.5,39.5C 186.013,31.9655 189.013,26.4655 195.5,23C 205.269,20.1587 214.436,21.3253 223,26.5C 225.726,30.8698 226.226,35.5365 224.5,40.5 Z"/></g>
<g><path style="opacity:1" fill="#ffb98f" d="M 220.5,39.5 C 215.833,39.5 211.167,39.5 206.5,39.5C 208.126,36.7543 208.793,33.7543 208.5,30.5C 214.8,30.4702 218.8,33.4702 220.5,39.5 Z"/></g>
<g><path style="opacity:0.989" fill="#fe7625" d="M 186.5,39.5 C 192.167,39.5 197.833,39.5 203.5,39.5C 202.167,43.1667 202.167,46.8333 203.5,50.5C 202.5,50.5 201.5,50.5 200.5,50.5C 200.806,47.6146 200.473,44.9479 199.5,42.5C 194.5,42.5 189.5,42.5 184.5,42.5C 184.427,40.9731 185.094,39.9731 186.5,39.5 Z"/></g>
<g><path style="opacity:0.987" fill="#18216d" d="M 203.5,39.5 C 204.5,39.5 205.5,39.5 206.5,39.5C 211.167,39.5 215.833,39.5 220.5,39.5C 221.959,39.4326 223.292,39.7659 224.5,40.5C 224.5,43.5 224.5,46.5 224.5,49.5C 223.292,50.2341 221.959,50.5674 220.5,50.5C 217.428,50.1875 214.595,50.8542 212,52.5C 210.238,52.0556 210.405,51.5556 212.5,51C 209.518,50.502 206.518,50.3354 203.5,50.5C 202.167,46.8333 202.167,43.1667 203.5,39.5 Z"/></g>
<g><path style="opacity:0.966" fill="#69023b" d="M 184.5,42.5 C 189.5,42.5 194.5,42.5 199.5,42.5C 199.5,43.5 199.5,44.5 199.5,45.5C 195.65,45.7007 194.65,47.5341 196.5,51C 197.793,51.49 199.127,51.6567 200.5,51.5C 200.5,56.1667 200.5,60.8333 200.5,65.5C 197.971,72.939 192.638,75.939 184.5,74.5C 179.837,72.3235 176.171,68.9901 173.5,64.5C 177.438,64.3727 180.105,62.5394 181.5,59C 178.349,52.5981 179.349,47.0981 184.5,42.5 Z"/></g>
<g><path style="opacity:0.936" fill="#ffb98f" d="M 284.5,87.5 C 279.654,86.7733 274.987,85.4399 270.5,83.5C 270.032,75.6809 270.865,68.0143 273,60.5C 274.418,58.6368 276.251,58.1368 278.5,59C 279.346,61.7823 279.513,64.6157 279,67.5C 280.574,66.0158 281.907,64.3492 283,62.5C 284.051,57.5258 284.885,52.5258 285.5,47.5C 289.375,46.8742 291.209,48.5408 291,52.5C 291.589,50.1367 293.089,49.1367 295.5,49.5C 295.336,52.1873 295.503,54.854 296,57.5C 297.751,52.8444 299.918,52.5111 302.5,56.5C 299.216,59.976 299.883,61.6427 304.5,61.5C 304.365,65.4383 302.865,68.7717 300,71.5C 295.253,77.4108 290.087,82.7441 284.5,87.5 Z"/></g>
<g><path style="opacity:1" fill="#ffb98f" d="M 199.5,42.5 C 200.473,44.9479 200.806,47.6146 200.5,50.5C 201.5,50.5 202.5,50.5 203.5,50.5C 206.518,50.3354 209.518,50.502 212.5,51C 210.405,51.5556 210.238,52.0556 212,52.5C 214.595,50.8542 217.428,50.1875 220.5,50.5C 220.065,58.7694 215.732,62.6027 207.5,62C 209.134,62.4935 210.801,62.6602 212.5,62.5C 212.5,63.5 212.5,64.5 212.5,65.5C 210.517,65.1568 209.183,65.8235 208.5,67.5C 207.778,67.0825 207.278,66.4158 207,65.5C 206.503,68.146 206.336,70.8127 206.5,73.5C 205.527,71.0521 205.194,68.3854 205.5,65.5C 203.833,65.5 202.167,65.5 200.5,65.5C 200.5,60.8333 200.5,56.1667 200.5,51.5C 199.127,51.6567 197.793,51.49 196.5,51C 194.65,47.5341 195.65,45.7007 199.5,45.5C 199.5,44.5 199.5,43.5 199.5,42.5 Z"/></g>
<g><path style="opacity:0.957" fill="#69003b" d="M 224.5,49.5 C 224.5,50.5 224.5,51.5 224.5,52.5C 229.26,52.2146 232.26,54.3812 233.5,59C 237.734,57.9244 238.567,59.4244 236,63.5C 234.293,65.0375 232.793,66.7041 231.5,68.5C 225.833,68.5 220.167,68.5 214.5,68.5C 214.715,66.8212 214.048,65.8212 212.5,65.5C 212.5,64.5 212.5,63.5 212.5,62.5C 210.801,62.6602 209.134,62.4935 207.5,62C 215.732,62.6027 220.065,58.7694 220.5,50.5C 221.959,50.5674 223.292,50.2341 224.5,49.5 Z"/></g>
<g><path style="opacity:0.851" fill="#18216d" d="M 401.5,59.5 C 402.833,77.4876 403.5,95.821 403.5,114.5C 403.655,133.587 403.155,152.587 402,171.5C 399.292,175.104 395.792,177.604 391.5,179C 377.515,183.498 363.181,186.164 348.5,187C 335.838,187.5 323.171,187.667 310.5,187.5C 310.5,151.167 310.5,114.833 310.5,78.5C 332.675,79.405 354.675,77.905 376.5,74C 383.521,72.6597 390.188,70.3264 396.5,67C 399.2,65.1433 400.866,62.6433 401.5,59.5 Z M 400.5,65.5 C 401.167,82.4967 401.5,99.6634 401.5,117C 401.654,134.921 401.154,152.755 400,170.5C 397.441,173.531 394.274,175.698 390.5,177C 376.554,181.713 362.221,184.38 347.5,185C 335.838,185.5 324.171,185.667 312.5,185.5C 312.333,150.165 312.5,114.832 313,79.5C 332.869,81.1128 352.703,80.2794 372.5,77C 379.671,75.6099 386.671,73.6099 393.5,71C 396.266,69.629 398.599,67.7957 400.5,65.5 Z"/></g>
<g><path style="opacity:0.982" fill="#fe7625" d="M 200.5,65.5 C 202.167,65.5 203.833,65.5 205.5,65.5C 205.194,68.3854 205.527,71.0521 206.5,73.5C 207.884,88.1594 209.217,102.826 210.5,117.5C 207.5,117.5 204.5,117.5 201.5,117.5C 199.076,118.03 196.743,118.864 194.5,120C 197.058,120.275 199.392,119.775 201.5,118.5C 204.939,118.253 208.272,118.586 211.5,119.5C 211.5,122.833 211.5,126.167 211.5,129.5C 203.622,126.779 197.288,128.779 192.5,135.5C 192.167,135.5 191.833,135.5 191.5,135.5C 192.29,131.794 193.29,128.128 194.5,124.5C 193.134,121.281 191.467,120.948 189.5,123.5C 186.167,124.833 183.833,127.167 182.5,130.5C 181.026,131.436 180.026,132.77 179.5,134.5C 178.549,133.081 178.216,131.415 178.5,129.5C 177.312,128.316 176.145,128.316 175,129.5C 174.112,133.402 174.612,137.069 176.5,140.5C 175.662,140.842 175.328,141.508 175.5,142.5C 175.5,142.833 175.5,143.167 175.5,143.5C 174.167,143.833 174.167,144.167 175.5,144.5C 175.334,148.846 175.501,153.179 176,157.5C 176.748,159.751 178.248,161.084 180.5,161.5C 181.167,161.833 181.833,162.167 182.5,162.5C 183.957,164.628 184.957,166.962 185.5,169.5C 175.282,174.517 164.782,178.851 154,182.5C 141.805,180.623 137.138,173.623 140,161.5C 149.53,137.245 158.863,112.912 168,88.5C 170.917,80.7469 176.417,76.0802 184.5,74.5C 192.638,75.939 197.971,72.939 200.5,65.5 Z"/></g>
<g><path style="opacity:1" fill="#721139" d="M 208.5,67.5 C 210.746,84.4656 212.746,101.466 214.5,118.5C 213.167,118.167 211.833,117.833 210.5,117.5C 209.217,102.826 207.884,88.1594 206.5,73.5C 206.336,70.8127 206.503,68.146 207,65.5C 207.278,66.4158 207.778,67.0825 208.5,67.5 Z"/></g>
<g><path style="opacity:0.975" fill="#fe7625" d="M 212.5,65.5 C 214.048,65.8212 214.715,66.8212 214.5,68.5C 220.167,68.5 225.833,68.5 231.5,68.5C 237.214,69.7199 241.714,72.7199 245,77.5C 251.195,91.7521 257.195,106.085 263,120.5C 265.157,111.882 266.99,103.215 268.5,94.5C 276.023,97.5634 283.69,100.23 291.5,102.5C 288.381,124.83 285.215,147.163 282,169.5C 278.145,179.506 271.312,182.339 261.5,178C 260,176.5 258.5,175 257,173.5C 251,158.833 245,144.167 239,129.5C 239.599,141.002 241.433,152.336 244.5,163.5C 239.329,164.434 234.163,165.434 229,166.5C 228.235,166.43 227.735,166.097 227.5,165.5C 228.906,165.027 229.573,164.027 229.5,162.5C 230.906,162.027 231.573,161.027 231.5,159.5C 236.673,150.805 236.673,142.138 231.5,133.5C 230.647,129.98 228.647,127.313 225.5,125.5C 224.738,123.738 223.404,122.738 221.5,122.5C 219.65,120.428 217.317,119.095 214.5,118.5C 212.746,101.466 210.746,84.4656 208.5,67.5C 209.183,65.8235 210.517,65.1568 212.5,65.5 Z"/></g>
<g><path style="opacity:1" fill="#8f2735" d="M 282.5,66.5 C 289.045,65.663 292.879,68.3297 294,74.5C 291.962,69.7676 288.462,67.6009 283.5,68C 280.279,69.115 279.612,71.115 281.5,74C 281.342,76.1493 280.508,77.9826 279,79.5C 278.996,77.6316 279.496,75.7983 280.5,74C 279.971,72.4411 279.304,70.9411 278.5,69.5C 279.901,68.4793 281.235,67.4793 282.5,66.5 Z"/></g>
<g><path style="opacity:0.937" fill="#fe7625" d="M 270.5,83.5 C 274.987,85.4399 279.654,86.7733 284.5,87.5C 287.48,88.8288 290.48,90.1622 293.5,91.5C 292.92,94.3106 292.254,96.9773 291.5,99.5C 291.719,98.325 291.386,97.325 290.5,96.5C 283.589,93.5424 276.589,90.8757 269.5,88.5C 269.216,86.5853 269.549,84.9187 270.5,83.5 Z"/></g>
<g><path style="opacity:0.954" fill="#18216d" d="M 369.5,110.5 C 368.698,109.048 368.198,107.382 368,105.5C 364.501,102.578 363.501,98.9111 365,94.5C 361.255,90.4339 357.922,90.7673 355,95.5C 354.244,97.8087 354.744,99.8087 356.5,101.5C 353.503,104.162 352.169,107.495 352.5,111.5C 344.944,104.406 344.611,96.9056 351.5,89C 363.626,83.4819 371.293,87.1486 374.5,100C 374.002,104.16 372.335,107.66 369.5,110.5 Z"/></g>
<g><path style="opacity:1" fill="#6e0b3a" d="M 269.5,88.5 C 276.589,90.8757 283.589,93.5424 290.5,96.5C 291.386,97.325 291.719,98.325 291.5,99.5C 291.5,100.5 291.5,101.5 291.5,102.5C 283.69,100.23 276.023,97.5634 268.5,94.5C 268.325,92.3792 268.659,90.3792 269.5,88.5 Z"/></g>
<g><path style="opacity:0.974" fill="#fe7625" d="M 369.5,110.5 C 363.864,114.717 358.197,115.051 352.5,111.5C 352.169,107.495 353.503,104.162 356.5,101.5C 354.744,99.8087 354.244,97.8087 355,95.5C 357.922,90.7673 361.255,90.4339 365,94.5C 363.501,98.9111 364.501,102.578 368,105.5C 368.198,107.382 368.698,109.048 369.5,110.5 Z"/></g>
<g><path style="opacity:1" fill="#a55329" d="M 234.5,85.5 C 235.309,87.2922 235.809,89.2922 236,91.5C 236.221,100.528 236.721,109.528 237.5,118.5C 237.167,119.167 236.833,119.833 236.5,120.5C 235.064,108.878 234.397,97.2116 234.5,85.5 Z"/></g>
<g><path style="opacity:1" fill="#a04b2a" d="M 178.5,129.5 C 177.26,117.843 176.426,106.177 176,94.5C 177.468,104.274 178.635,114.107 179.5,124C 179.494,126.033 179.161,127.866 178.5,129.5 Z"/></g>
<g><path style="opacity:0.946" fill="#18216d" d="M 395.5,114.5 C 396.812,116.743 397.478,119.41 397.5,122.5C 397.333,125.167 397.167,127.833 397,130.5C 384.98,135.239 372.48,138.072 359.5,139C 344.861,140.249 330.194,140.749 315.5,140.5C 315.5,135.167 315.5,129.833 315.5,124.5C 338.375,125.12 361.042,123.286 383.5,119C 387.837,118.095 391.837,116.595 395.5,114.5 Z"/></g>
<g><path style="opacity:1" fill="#18216d" d="M 201.5,118.5 C 201.5,118.167 201.5,117.833 201.5,117.5C 204.5,117.5 207.5,117.5 210.5,117.5C 211.833,117.833 213.167,118.167 214.5,118.5C 213.791,119.404 212.791,119.737 211.5,119.5C 208.272,118.586 204.939,118.253 201.5,118.5 Z"/></g>
<g><path style="opacity:1" fill="#877f94" d="M 201.5,117.5 C 201.5,117.833 201.5,118.167 201.5,118.5C 199.392,119.775 197.058,120.275 194.5,120C 196.743,118.864 199.076,118.03 201.5,117.5 Z"/></g>
<g><path style="opacity:1" fill="#72234b" d="M 214.5,118.5 C 217.317,119.095 219.65,120.428 221.5,122.5C 219.742,122.123 218.075,121.456 216.5,120.5C 215.54,124.139 215.54,127.805 216.5,131.5C 214.95,130.559 213.284,129.893 211.5,129.5C 211.5,126.167 211.5,122.833 211.5,119.5C 212.791,119.737 213.791,119.404 214.5,118.5 Z"/></g>
<g><path style="opacity:1" fill="#fe7625" d="M 221.5,122.5 C 222.262,124.262 223.596,125.262 225.5,125.5C 227.122,128.455 229.122,131.122 231.5,133.5C 234.167,142.167 234.167,150.833 231.5,159.5C 230.094,159.973 229.427,160.973 229.5,162.5C 228.094,162.973 227.427,163.973 227.5,165.5C 226.833,165.5 226.5,165.833 226.5,166.5C 225.391,166.557 224.391,166.89 223.5,167.5C 222.5,167.5 221.5,167.5 220.5,167.5C 219.783,156.599 218.45,145.766 216.5,135C 216.667,134.5 216.833,134 217,133.5C 217.708,134.381 218.542,135.047 219.5,135.5C 219.5,133.5 218.5,132.5 216.5,132.5C 216.5,132.167 216.5,131.833 216.5,131.5C 215.54,127.805 215.54,124.139 216.5,120.5C 218.075,121.456 219.742,122.123 221.5,122.5 Z"/></g>
<g><path style="opacity:1" fill="#7475aa" d="M 221.5,122.5 C 223.404,122.738 224.738,123.738 225.5,125.5C 223.596,125.262 222.262,124.262 221.5,122.5 Z"/></g>
<g><path style="opacity:1" fill="#fe7625" d="M 189.5,123.5 C 190.097,123.735 190.43,124.235 190.5,125C 188.522,128.936 187.355,133.103 187,137.5C 185.608,134.722 185.108,131.722 185.5,128.5C 186.833,126.833 188.167,125.167 189.5,123.5 Z"/></g>
<g><path style="opacity:1" fill="#7d6ba1" d="M 189.5,123.5 C 188.167,125.167 186.833,126.833 185.5,128.5C 184.5,129.167 183.5,129.833 182.5,130.5C 183.833,127.167 186.167,124.833 189.5,123.5 Z"/></g>
<g><path style="opacity:1" fill="#8278a4" d="M 225.5,125.5 C 228.647,127.313 230.647,129.98 231.5,133.5C 229.122,131.122 227.122,128.455 225.5,125.5 Z"/></g>
<g><path style="opacity:1" fill="#fe7625" d="M 364.5,128.5 C 368.419,127.746 369.753,129.08 368.5,132.5C 364.134,134.134 362.801,132.801 364.5,128.5 Z"/></g>
<g><path style="opacity:1" fill="#705ab8" d="M 211.5,129.5 C 213.284,129.893 214.95,130.559 216.5,131.5C 216.5,131.833 216.5,132.167 216.5,132.5C 215.167,132.167 213.833,131.833 212.5,131.5C 209.292,129.469 205.959,129.135 202.5,130.5C 198.703,131.311 195.369,132.978 192.5,135.5C 197.288,128.779 203.622,126.779 211.5,129.5 Z"/></g>
<g><path style="opacity:1" fill="#fe7625" d="M 212.5,131.5 C 212.5,133.5 212.5,135.5 212.5,137.5C 207.03,134.526 202.03,135.193 197.5,139.5C 198.374,136.087 200.041,133.087 202.5,130.5C 205.959,129.135 209.292,129.469 212.5,131.5 Z"/></g>
<g><path style="opacity:1" fill="#fe7625" d="M 353.5,129.5 C 357.161,129.35 358.161,130.85 356.5,134C 352.707,134.487 351.707,132.987 353.5,129.5 Z"/></g>
<g><path style="opacity:1" fill="#fe7625" d="M 321.5,130.5 C 325.138,129.737 326.638,131.07 326,134.5C 322.331,136.009 320.831,134.676 321.5,130.5 Z"/></g>
<g><path style="opacity:1" fill="#fe7625" d="M 331.5,130.5 C 335.138,129.737 336.638,131.07 336,134.5C 331.415,136.413 329.915,135.079 331.5,130.5 Z"/></g>
<g><path style="opacity:1" fill="#fe7625" d="M 342.5,130.5 C 343.833,130.5 345.167,130.5 346.5,130.5C 346.99,132.948 346.157,134.615 344,135.5C 341.389,134.5 340.889,132.833 342.5,130.5 Z"/></g>
<g><path style="opacity:0.948" fill="#18216d" d="M 394.5,133.5 C 395.5,133.5 396.5,133.5 397.5,133.5C 397.666,138.511 397.499,143.511 397,148.5C 384.649,153.371 371.815,156.204 358.5,157C 344.19,158.177 329.857,158.677 315.5,158.5C 315.5,153.5 315.5,148.5 315.5,143.5C 339.439,144.109 363.105,141.942 386.5,137C 389.476,136.295 392.142,135.129 394.5,133.5 Z"/></g>
<g><path style="opacity:1" fill="#18216d" d="M 212.5,137.5 C 217.383,142.898 217.716,148.565 213.5,154.5C 209.009,156.738 204.342,157.072 199.5,155.5C 195.186,150.635 194.519,145.301 197.5,139.5C 202.03,135.193 207.03,134.526 212.5,137.5 Z"/></g>
<g><path style="opacity:1" fill="#7272b0" d="M 219.5,135.5 C 220.906,135.973 221.573,136.973 221.5,138.5C 220.094,138.027 219.427,137.027 219.5,135.5 Z"/></g>
<g><path style="opacity:1" fill="#9c462b" d="M 262.5,123.5 C 263.376,123.369 264.043,123.702 264.5,124.5C 262.629,134.52 260.629,144.52 258.5,154.5C 258.167,154 257.833,153.5 257.5,153C 259.654,143.244 261.32,133.411 262.5,123.5 Z"/></g>
<g><path style="opacity:1" fill="#ffb98f" d="M 191.5,135.5 C 190.89,136.391 190.557,137.391 190.5,138.5C 191.906,138.027 192.573,137.027 192.5,135.5C 195.369,132.978 198.703,131.311 202.5,130.5C 200.041,133.087 198.374,136.087 197.5,139.5C 194.519,145.301 195.186,150.635 199.5,155.5C 197.738,156.262 196.738,157.596 196.5,159.5C 195.508,159.328 194.842,159.662 194.5,160.5C 193.167,161.167 191.833,161.833 190.5,162.5C 189.833,162.5 189.5,162.833 189.5,163.5C 187.621,162.659 185.621,162.325 183.5,162.5C 183.167,162.5 182.833,162.5 182.5,162.5C 177.167,151.833 177.167,141.167 182.5,130.5C 183.5,129.833 184.5,129.167 185.5,128.5C 185.108,131.722 185.608,134.722 187,137.5C 187.355,133.103 188.522,128.936 190.5,125C 190.43,124.235 190.097,123.735 189.5,123.5C 191.467,120.948 193.134,121.281 194.5,124.5C 193.29,128.128 192.29,131.794 191.5,135.5 Z"/></g>
<g><path style="opacity:1" fill="#6662c3" d="M 191.5,135.5 C 191.833,135.5 192.167,135.5 192.5,135.5C 192.573,137.027 191.906,138.027 190.5,138.5C 190.557,137.391 190.89,136.391 191.5,135.5 Z"/></g>
<g><path style="opacity:1" fill="#74539f" d="M 190.5,138.5 C 189.167,143.833 189.167,149.167 190.5,154.5C 189.883,154.389 189.383,154.056 189,153.5C 188.304,150.522 187.804,147.522 187.5,144.5C 182.5,143.997 182.833,143.664 188.5,143.5C 188.402,141.447 189.069,139.78 190.5,138.5 Z"/></g>
<g><path style="opacity:1" fill="#8f848b" d="M 221.5,138.5 C 225.282,143.601 225.449,148.935 222,154.5C 222.766,149.188 222.599,143.855 221.5,138.5 Z"/></g>
<g><path style="opacity:1" fill="#867f96" d="M 231.5,133.5 C 236.673,142.138 236.673,150.805 231.5,159.5C 234.167,150.833 234.167,142.167 231.5,133.5 Z"/></g>
<g><path style="opacity:1" fill="#98422b" d="M 157.5,151.5 C 162.521,148.771 167.854,146.937 173.5,146C 168.426,148.525 163.093,150.358 157.5,151.5 Z"/></g>
<g><path style="opacity:1" fill="#7261ae" d="M 182.5,130.5 C 177.167,141.167 177.167,151.833 182.5,162.5C 181.833,162.167 181.167,161.833 180.5,161.5C 176.965,152.606 176.631,143.606 179.5,134.5C 180.026,132.77 181.026,131.436 182.5,130.5 Z"/></g>
<g><path style="opacity:1" fill="#fe7625" d="M 321.5,148.5 C 325.138,147.737 326.638,149.07 326,152.5C 322.331,154.009 320.831,152.676 321.5,148.5 Z"/></g>
<g><path style="opacity:1" fill="#fe7625" d="M 331.5,148.5 C 335.138,147.737 336.638,149.07 336,152.5C 331.415,154.413 329.915,153.079 331.5,148.5 Z"/></g>
<g><path style="opacity:1" fill="#fe7625" d="M 342.5,148.5 C 343.833,148.5 345.167,148.5 346.5,148.5C 346.99,150.948 346.157,152.615 344,153.5C 341.389,152.5 340.889,150.833 342.5,148.5 Z"/></g>
<g><path style="opacity:1" fill="#ffb98f" d="M 178.5,129.5 C 178.216,131.415 178.549,133.081 179.5,134.5C 176.631,143.606 176.965,152.606 180.5,161.5C 178.248,161.084 176.748,159.751 176,157.5C 175.501,153.179 175.334,148.846 175.5,144.5C 175.5,144.167 175.5,143.833 175.5,143.5C 175.5,143.167 175.5,142.833 175.5,142.5C 176.338,142.158 176.672,141.492 176.5,140.5C 174.612,137.069 174.112,133.402 175,129.5C 176.145,128.316 177.312,128.316 178.5,129.5 Z"/></g>
<g><path style="opacity:1" fill="#a24d27" d="M 157.5,151.5 C 154.482,153.562 151.148,154.728 147.5,155C 150.572,153.142 153.905,151.976 157.5,151.5 Z"/></g>
<g><path style="opacity:1" fill="#655cbc" d="M 190.5,154.5 C 192.085,155.002 192.585,156.002 192,157.5C 190.961,156.756 190.461,155.756 190.5,154.5 Z"/></g>
<g><path style="opacity:1" fill="#fe7625" d="M 213.5,154.5 C 214.833,156.833 214.833,159.167 213.5,161.5C 207.3,164.565 201.634,163.898 196.5,159.5C 196.738,157.596 197.738,156.262 199.5,155.5C 204.342,157.072 209.009,156.738 213.5,154.5 Z"/></g>
<g><path style="opacity:1" fill="#676eb9" d="M 231.5,159.5 C 231.573,161.027 230.906,162.027 229.5,162.5C 229.427,160.973 230.094,159.973 231.5,159.5 Z"/></g>
<g><path style="opacity:0.923" fill="#fe7625" d="M 368.5,160.5 C 371.448,160.223 374.281,160.556 377,161.5C 377.667,165.5 377.667,169.5 377,173.5C 376.5,174 376,174.5 375.5,175C 362.934,177.457 350.267,178.457 337.5,178C 337,177.5 336.5,177 336,176.5C 335.333,172.833 335.333,169.167 336,165.5C 336.5,165 337,164.5 337.5,164C 348.044,163.393 358.378,162.226 368.5,160.5 Z"/></g>
<g><path style="opacity:1" fill="#fe7625" d="M 194.5,160.5 C 200.537,164.838 206.87,165.505 213.5,162.5C 214.461,164.265 214.795,166.265 214.5,168.5C 206.167,168.5 197.833,168.5 189.5,168.5C 188.833,168.5 188.5,168.167 188.5,167.5C 191.634,166.892 192.301,165.226 190.5,162.5C 191.833,161.833 193.167,161.167 194.5,160.5 Z"/></g>
<g><path style="opacity:1" fill="#7876a7" d="M 194.5,160.5 C 194.842,159.662 195.508,159.328 196.5,159.5C 201.634,163.898 207.3,164.565 213.5,161.5C 213.5,161.833 213.5,162.167 213.5,162.5C 206.87,165.505 200.537,164.838 194.5,160.5 Z"/></g>
<g><path style="opacity:1" fill="#6471b4" d="M 229.5,162.5 C 229.573,164.027 228.906,165.027 227.5,165.5C 227.427,163.973 228.094,162.973 229.5,162.5 Z"/></g>
<g><path style="opacity:0.983" fill="#68003c" d="M 244.5,163.5 C 248.074,167.636 250.908,172.303 253,177.5C 259.333,201.833 265.667,226.167 272,250.5C 274.197,288.56 277.03,326.56 280.5,364.5C 279.5,364.5 278.5,364.5 277.5,364.5C 269.947,366.655 262.28,367.988 254.5,368.5C 251.518,368.037 248.518,367.704 245.5,367.5C 244.982,346.126 243.816,324.793 242,303.5C 231.5,323.167 221,342.833 210.5,362.5C 208.604,363.466 206.604,363.799 204.5,363.5C 197.325,361.246 190.658,357.912 184.5,353.5C 182.516,351.54 181.683,349.207 182,346.5C 195.04,322.253 208.206,298.087 221.5,274C 210.128,250.09 198.628,226.257 187,202.5C 184.518,191.544 185.351,180.878 189.5,170.5C 199.49,176.536 209.823,177.036 220.5,172C 222.996,170.669 224.996,168.836 226.5,166.5C 226.5,165.833 226.833,165.5 227.5,165.5C 227.735,166.097 228.235,166.43 229,166.5C 234.163,165.434 239.329,164.434 244.5,163.5 Z"/></g>
<g><path style="opacity:1" fill="#924f50" d="M 182.5,162.5 C 182.833,162.5 183.167,162.5 183.5,162.5C 184.708,165.044 186.708,166.378 189.5,166.5C 189.5,165.5 189.5,164.5 189.5,163.5C 189.5,162.833 189.833,162.5 190.5,162.5C 192.301,165.226 191.634,166.892 188.5,167.5C 187.167,167.5 186.5,168.167 186.5,169.5C 186.167,169.5 185.833,169.5 185.5,169.5C 184.957,166.962 183.957,164.628 182.5,162.5 Z"/></g>
<g><path style="opacity:1" fill="#fe7625" d="M 183.5,162.5 C 185.621,162.325 187.621,162.659 189.5,163.5C 189.5,164.5 189.5,165.5 189.5,166.5C 186.708,166.378 184.708,165.044 183.5,162.5 Z"/></g>
<g><path style="opacity:1" fill="#6f113f" d="M 212.5,131.5 C 213.833,131.833 215.167,132.167 216.5,132.5C 218.5,132.5 219.5,133.5 219.5,135.5C 218.542,135.047 217.708,134.381 217,133.5C 216.833,134 216.667,134.5 216.5,135C 218.45,145.766 219.783,156.599 220.5,167.5C 221.5,167.5 222.5,167.5 223.5,167.5C 212.475,176.443 201.142,176.776 189.5,168.5C 197.833,168.5 206.167,168.5 214.5,168.5C 214.795,166.265 214.461,164.265 213.5,162.5C 213.5,162.167 213.5,161.833 213.5,161.5C 214.833,159.167 214.833,156.833 213.5,154.5C 217.716,148.565 217.383,142.898 212.5,137.5C 212.5,135.5 212.5,133.5 212.5,131.5 Z"/></g>
<g><path style="opacity:1" fill="#4039c0" d="M 226.5,166.5 C 224.996,168.836 222.996,170.669 220.5,172C 209.823,177.036 199.49,176.536 189.5,170.5C 188.609,169.89 187.609,169.557 186.5,169.5C 186.5,168.167 187.167,167.5 188.5,167.5C 188.5,168.167 188.833,168.5 189.5,168.5C 201.142,176.776 212.475,176.443 223.5,167.5C 224.391,166.89 225.391,166.557 226.5,166.5 Z"/></g>
<g><path style="opacity:1" fill="#bc8da8" d="M 232.5,214.5 C 230.983,212.538 230.316,210.205 230.5,207.5C 231.03,202.17 231.53,196.836 232,191.5C 232.5,199.159 232.666,206.826 232.5,214.5 Z"/></g>
<g><path style="opacity:1" fill="#d2b1c4" d="M 232.5,214.5 C 235.088,218.098 236.588,222.098 237,226.5C 234.998,222.658 233.498,218.658 232.5,214.5 Z"/></g>
<g><path style="opacity:1" fill="#d3b5c6" d="M 239.5,231.5 C 242.791,236.746 244.957,242.413 246,248.5C 243.258,243.023 241.092,237.356 239.5,231.5 Z"/></g>
<g><path style="opacity:0.911" fill="#18216d" d="M 212.5,442.5 C 213.167,442.5 213.833,442.5 214.5,442.5C 220.212,442.687 225.879,442.354 231.5,441.5C 231.5,420.167 231.5,398.833 231.5,377.5C 232.5,377.5 233.5,377.5 234.5,377.5C 234.5,398.833 234.5,420.167 234.5,441.5C 263.31,441.888 291.977,444.221 320.5,448.5C 321.772,448.43 322.938,448.097 324,447.5C 331.35,384.846 338.517,322.18 345.5,259.5C 346.5,259.5 347.5,259.5 348.5,259.5C 341.711,322.772 334.377,385.939 326.5,449C 336.721,451.301 346.388,454.968 355.5,460C 359.5,464 359.5,468 355.5,472C 347.195,477.103 338.195,480.436 328.5,482C 268.279,492.294 207.946,492.961 147.5,484C 134.909,482.187 122.909,478.52 111.5,473C 106.167,468.333 106.167,463.667 111.5,459C 119.619,454.46 128.285,451.627 137.5,450.5C 130.085,386.843 122.751,323.176 115.5,259.5C 116.5,259.5 117.5,259.5 118.5,259.5C 125.515,322.953 133.182,386.286 141.5,449.5C 164.941,445.066 188.608,442.732 212.5,442.5 Z M 222.5,444.5 C 256.061,444.111 289.394,446.611 322.5,452C 323.291,454.75 323.291,457.583 322.5,460.5C 312.401,457.38 302.068,455.213 291.5,454C 246.35,448.784 201.35,449.784 156.5,457C 151.627,457.884 146.96,459.384 142.5,461.5C 141.792,458.634 141.125,455.8 140.5,453C 153.654,449.883 166.987,447.883 180.5,447C 194.658,446.165 208.658,445.331 222.5,444.5 Z M 326.5,452.5 C 335.173,454.254 343.506,457.087 351.5,461C 356.833,464.333 356.833,467.667 351.5,471C 340.645,475.881 329.312,479.215 317.5,481C 265.593,488.676 213.593,489.342 161.5,483C 145.186,481.406 129.519,477.406 114.5,471C 109.167,467.667 109.167,464.333 114.5,461C 121.929,456.737 129.762,454.57 138,454.5C 138.212,457.758 138.712,460.924 139.5,464C 138.124,466.54 138.79,468.54 141.5,470C 155.007,475.142 169.007,478.142 183.5,479C 221.91,482.63 260.243,481.963 298.5,477C 305.978,475.964 313.312,474.297 320.5,472C 322.587,471.208 324.421,470.041 326,468.5C 325.173,463.168 325.34,457.834 326.5,452.5 Z"/></g>
<g><path style="opacity:1" fill="#c399b1" d="M 248.5,253.5 C 252.988,260.133 255.155,267.467 255,275.5C 254.529,277.246 253.862,278.913 253,280.5C 253.476,275.883 253.476,271.217 253,266.5C 251.193,262.244 249.693,257.911 248.5,253.5 Z"/></g>
<g><path style="opacity:1" fill="#d4b6c7" d="M 249.5,284.5 C 250.573,285.251 250.74,286.251 250,287.5C 248,291.5 246,295.5 244,299.5C 243.333,298.5 243.333,297.5 244,296.5C 246.119,292.598 247.952,288.598 249.5,284.5 Z"/></g>
<g><path style="opacity:0.997" fill="#ffb98f" d="M 184.5,353.5 C 190.658,357.912 197.325,361.246 204.5,363.5C 202.735,366.709 200.735,369.709 198.5,372.5C 194.763,372.745 191.097,373.411 187.5,374.5C 183.771,374.096 180.771,372.429 178.5,369.5C 180.695,364.249 182.695,358.916 184.5,353.5 Z"/></g>
<g><path style="opacity:0.998" fill="#ffb98f" d="M 277.5,364.5 C 276.816,371.088 276.816,377.754 277.5,384.5C 274.736,385.965 271.903,387.298 269,388.5C 266.968,388.142 265.134,387.308 263.5,386C 261.527,385.505 259.527,385.338 257.5,385.5C 257.137,379.69 256.137,374.023 254.5,368.5C 262.28,367.988 269.947,366.655 277.5,364.5 Z"/></g>
<g><path style="opacity:0.956" fill="#fe7625" d="M 178.5,369.5 C 180.771,372.429 183.771,374.096 187.5,374.5C 191.097,373.411 194.763,372.745 198.5,372.5C 199.475,375.067 200.142,377.733 200.5,380.5C 197.15,380.335 193.817,380.502 190.5,381C 189.483,382.049 189.316,383.216 190,384.5C 194.166,385.803 198.333,385.803 202.5,384.5C 202.5,385.5 202.5,386.5 202.5,387.5C 200.031,388.317 197.365,388.817 194.5,389C 193.663,390.011 193.33,391.178 193.5,392.5C 197.6,392.237 201.6,392.57 205.5,393.5C 208.918,404.579 213.418,415.245 219,425.5C 220.622,432.115 219.122,437.781 214.5,442.5C 213.833,442.5 213.167,442.5 212.5,442.5C 195.222,423.219 177.556,404.219 159.5,385.5C 165.853,380.144 172.186,374.81 178.5,369.5 Z"/></g>
<g><path style="opacity:0.945" fill="#781b37" d="M 200.5,380.5 C 202.176,381.183 202.843,382.517 202.5,384.5C 198.333,385.803 194.166,385.803 190,384.5C 189.316,383.216 189.483,382.049 190.5,381C 193.817,380.502 197.15,380.335 200.5,380.5 Z"/></g>
<g><path style="opacity:0.951" fill="#fe7625" d="M 277.5,384.5 C 279.167,386.5 280.833,388.5 282.5,390.5C 280.162,392.04 277.495,392.706 274.5,392.5C 274.5,393.833 274.5,395.167 274.5,396.5C 278.481,395.979 282.481,395.646 286.5,395.5C 286.833,396.167 287.167,396.833 287.5,397.5C 285.095,398.768 282.428,399.435 279.5,399.5C 279.5,400.833 279.5,402.167 279.5,403.5C 283.524,402.962 287.524,402.295 291.5,401.5C 297.203,408.37 303.703,414.37 311,419.5C 314.064,424.951 314.231,430.451 311.5,436C 310.5,436.667 309.5,436.667 308.5,436C 287.623,425.395 266.623,415.061 245.5,405C 244.483,403.951 244.316,402.784 245,401.5C 249.417,396.318 253.583,390.984 257.5,385.5C 259.527,385.338 261.527,385.505 263.5,386C 265.134,387.308 266.968,388.142 269,388.5C 271.903,387.298 274.736,385.965 277.5,384.5 Z"/></g>
<g><path style="opacity:0.968" fill="#68023c" d="M 202.5,387.5 C 206.173,388.179 207.173,390.179 205.5,393.5C 201.6,392.57 197.6,392.237 193.5,392.5C 193.33,391.178 193.663,390.011 194.5,389C 197.365,388.817 200.031,388.317 202.5,387.5 Z"/></g>
<g><path style="opacity:0.93" fill="#6b043b" d="M 282.5,390.5 C 283.833,390.5 285.167,390.5 286.5,390.5C 286.5,392.167 286.5,393.833 286.5,395.5C 282.481,395.646 278.481,395.979 274.5,396.5C 274.5,395.167 274.5,393.833 274.5,392.5C 277.495,392.706 280.162,392.04 282.5,390.5 Z"/></g>
<g><path style="opacity:1" fill="#9a442b" d="M 166.5,385.5 C 171.031,388.847 174.531,392.847 177,397.5C 172.896,393.905 169.396,389.905 166.5,385.5 Z"/></g>
<g><path style="opacity:0.936" fill="#6c063a" d="M 287.5,397.5 C 291.517,396.839 292.851,398.172 291.5,401.5C 287.524,402.295 283.524,402.962 279.5,403.5C 279.5,402.167 279.5,400.833 279.5,399.5C 282.428,399.435 285.095,398.768 287.5,397.5 Z"/></g>
<g><path style="opacity:1" fill="#99422b" d="M 179.5,399.5 C 183.702,402.516 186.869,406.183 189,410.5C 185.227,407.236 182.06,403.57 179.5,399.5 Z"/></g>
<g><path style="opacity:1" fill="#9a442a" d="M 248.5,401.5 C 248.56,400.957 248.893,400.624 249.5,400.5C 258.99,405.078 268.324,409.911 277.5,415C 267.68,411.093 258.013,406.593 248.5,401.5 Z"/></g>
<g><path style="opacity:1" fill="#9a432b" d="M 191.5,412.5 C 196.031,415.847 199.531,419.847 202,424.5C 197.896,420.905 194.396,416.905 191.5,412.5 Z"/></g>
<g><path style="opacity:1" fill="#98422b" d="M 293.5,424.5 C 293.56,423.957 293.893,423.624 294.5,423.5C 299.659,425.912 304.659,428.579 309.5,431.5C 304.225,429.882 298.892,427.549 293.5,424.5 Z"/></g>
<g><path style="opacity:1" fill="#99412a" d="M 204.5,426.5 C 208.373,429.186 211.206,432.519 213,436.5C 209.558,433.568 206.725,430.235 204.5,426.5 Z"/></g>
</svg>
